<svg xmlns="http://www.w3.org/2000/svg" viewBox="0 0 159.45 29.59"><defs><style>.cls-1{fill:#fff;}</style></defs><title>资源 3</title><g id="&#x56FE;&#x5C42;_2" data-name="&#x56FE;&#x5C42; 2"><g id="&#x56FE;&#x5C42;_1-2" data-name="&#x56FE;&#x5C42; 1"><path class="cls-1" d="M3.58,8.08a4,4,0,0,0,.5,2.08,4,4,0,0,0,1.34,1.35,8,8,0,0,0,2,.88c.74.22,1.51.44,2.31.63,1.08.27,2.14.57,3.19.9a10.32,10.32,0,0,1,2.79,1.35,6.74,6.74,0,0,1,2,2.25,7.45,7.45,0,0,1,.76,3.56,8.42,8.42,0,0,1-.82,3.83,7.34,7.34,0,0,1-2.27,2.64,10.26,10.26,0,0,1-3.43,1.54,17.81,17.81,0,0,1-4.33.5,18.6,18.6,0,0,1-2.21-.14c-.76-.09-1.48-.22-2.17-.37a17.38,17.38,0,0,1-1.86-.54A6.59,6.59,0,0,1,0,28V24.77a11.62,11.62,0,0,0,1.69.7A17.16,17.16,0,0,0,3.62,26c.67.15,1.34.26,2,.35a14.61,14.61,0,0,0,4.69-.13,7,7,0,0,0,2.32-.85,4.27,4.27,0,0,0,1.58-1.63,5.2,5.2,0,0,0,.59-2.59,4,4,0,0,0-.51-2.11,4.3,4.3,0,0,0-1.37-1.38,8,8,0,0,0-2-.88c-.74-.23-1.52-.44-2.34-.64-1.09-.26-2.14-.54-3.18-.86A9.83,9.83,0,0,1,2.7,14a6.35,6.35,0,0,1-2-2.19A7.11,7.11,0,0,1,0,8.34,8.37,8.37,0,0,1,.78,4.59,7.28,7.28,0,0,1,2.88,2,9,9,0,0,1,5.93.49,13.3,13.3,0,0,1,9.61,0a18.89,18.89,0,0,1,4.16.44,19.12,19.12,0,0,1,3.52,1.14V4.8a23.36,23.36,0,0,0-3.56-1.22,17.15,17.15,0,0,0-4-.49A9.78,9.78,0,0,0,7,3.44a5.5,5.5,0,0,0-1.93,1A4.09,4.09,0,0,0,4,6,5.47,5.47,0,0,0,3.58,8.08Z"></path><path class="cls-1" d="M38.69,16.44q2.55,3.76,5.06,7.76h.12c-.18-2.78-.27-5.6-.27-8.49V.53H47V29.06H43.62L32.69,13.15q-2.82-4.15-5-7.76h-.13q.27,3.9.27,9.11V29.06H24.39V.53h3.37Z"></path><path class="cls-1" d="M56.77,8.08a4,4,0,0,0,.5,2.08,4,4,0,0,0,1.34,1.35,8,8,0,0,0,2,.88c.74.22,1.51.44,2.31.63,1.08.27,2.14.57,3.19.9a10.32,10.32,0,0,1,2.79,1.35,6.53,6.53,0,0,1,2,2.25,7.34,7.34,0,0,1,.76,3.56,8.29,8.29,0,0,1-.82,3.83,7.24,7.24,0,0,1-2.27,2.64,10.21,10.21,0,0,1-3.42,1.54,17.87,17.87,0,0,1-4.33.5,18.9,18.9,0,0,1-2.22-.14c-.76-.09-1.48-.22-2.16-.37a16.93,16.93,0,0,1-1.87-.54A6.59,6.59,0,0,1,53.19,28V24.77a11.62,11.62,0,0,0,1.69.7,17.16,17.16,0,0,0,1.93.55c.67.15,1.34.26,2,.35a14.68,14.68,0,0,0,4.7-.13,7.11,7.11,0,0,0,2.32-.85,4.41,4.41,0,0,0,1.58-1.63A5.2,5.2,0,0,0,68,21.17a4,4,0,0,0-.51-2.11,4.27,4.27,0,0,0-1.36-1.38,8.28,8.28,0,0,0-2-.88c-.74-.23-1.52-.44-2.34-.64-1.08-.26-2.14-.54-3.17-.86A9.76,9.76,0,0,1,55.89,14a6.46,6.46,0,0,1-2-2.19,7.11,7.11,0,0,1-.74-3.43A8.37,8.37,0,0,1,54,4.59,7.5,7.5,0,0,1,56.07,2a9.08,9.08,0,0,1,3-1.51A13.37,13.37,0,0,1,62.81,0,18.8,18.8,0,0,1,67,.44a19.48,19.48,0,0,1,3.53,1.14V4.8a23.11,23.11,0,0,0-3.57-1.22,17.08,17.08,0,0,0-4-.49,9.65,9.65,0,0,0-2.74.35,5.55,5.55,0,0,0-1.94,1A4.06,4.06,0,0,0,57.15,6,5.47,5.47,0,0,0,56.77,8.08Z"></path><path class="cls-1" d="M108.47,14.14a3.67,3.67,0,0,0-1.35-1.07,4,4,0,0,0-1.73-.37,3.94,3.94,0,0,0-1.72.37,3.7,3.7,0,0,0-1.36,1.07,5.09,5.09,0,0,0-.89,1.72,7.55,7.55,0,0,0-.32,2.33,7.5,7.5,0,0,0,.32,2.31,4.8,4.8,0,0,0,.9,1.71,3.9,3.9,0,0,0,1.36,1.07,4.12,4.12,0,0,0,1.73.36,4,4,0,0,0,1.71-.36,3.77,3.77,0,0,0,1.35-1.07,5,5,0,0,0,.9-1.71,7.82,7.82,0,0,0,.32-2.31,7.86,7.86,0,0,0-.32-2.33A5.1,5.1,0,0,0,108.47,14.14Z"></path><path class="cls-1" d="M150.37.73H75.06V28.86h84.39v-19A9.07,9.07,0,0,0,150.37.73ZM87.69,23.08a3.7,3.7,0,0,1-1.17,1.38,5.31,5.31,0,0,1-1.81.85,8.52,8.52,0,0,1-2.32.29A10.13,10.13,0,0,1,81,25.52a7.33,7.33,0,0,1-1.11-.21,6.17,6.17,0,0,1-.82-.26,4.74,4.74,0,0,1-.57-.25V22.87a11.72,11.72,0,0,0,1.74.56,7.93,7.93,0,0,0,1.89.21,6.67,6.67,0,0,0,1.48-.15,3.6,3.6,0,0,0,1.13-.44,2,2,0,0,0,.73-.73,2,2,0,0,0,.25-1,1.89,1.89,0,0,0-.23-1,2,2,0,0,0-.63-.64,4,4,0,0,0-.91-.41c-.34-.11-.71-.21-1.09-.3s-1-.23-1.51-.38A5.33,5.33,0,0,1,79.94,18a3,3,0,0,1-1-1.09,3.58,3.58,0,0,1-.39-1.78,4.32,4.32,0,0,1,.4-1.93A4,4,0,0,1,80,11.81a4.54,4.54,0,0,1,1.6-.8,6.63,6.63,0,0,1,1.91-.27,9.94,9.94,0,0,1,2.18.22,10.53,10.53,0,0,1,1.82.57v2a12.13,12.13,0,0,0-1.77-.56,8.48,8.48,0,0,0-1.82-.23,5,5,0,0,0-1.37.16,2.61,2.61,0,0,0-.93.46,1.73,1.73,0,0,0-.53.68,2.21,2.21,0,0,0-.17.87,1.72,1.72,0,0,0,.25,1,2,2,0,0,0,.67.61,4.38,4.38,0,0,0,1,.37c.37.1.74.19,1.13.27.54.12,1,.25,1.51.39a4.92,4.92,0,0,1,1.32.65,3.21,3.21,0,0,1,1,1.17,4.22,4.22,0,0,1,.37,1.91A4.11,4.11,0,0,1,87.69,23.08Zm23.93-1.86a6.91,6.91,0,0,1-1.35,2.34,6,6,0,0,1-2.1,1.51,7,7,0,0,1-2.76.53,7.2,7.2,0,0,1-2.82-.53,6,6,0,0,1-2.11-1.51,6.71,6.71,0,0,1-1.33-2.34,9.4,9.4,0,0,1-.46-3,9.43,9.43,0,0,1,.47-3.05,7,7,0,0,1,1.35-2.35,5.92,5.92,0,0,1,2.11-1.51,6.84,6.84,0,0,1,2.77-.54,7,7,0,0,1,2.81.54,5.75,5.75,0,0,1,2.11,1.51,6.92,6.92,0,0,1,1.33,2.35,9.72,9.72,0,0,1,.45,3.05A9.13,9.13,0,0,1,111.62,21.22Zm21-15.7a9,9,0,0,0-1-.13c-.36,0-.66,0-.93,0a4.67,4.67,0,0,0-1.39.19,2.48,2.48,0,0,0-1,.61,2.84,2.84,0,0,0-.64,1.12,5.45,5.45,0,0,0-.22,1.67v2.17h4.21v2h-4.21V25.23h-2.3V13.09h-2.49v-2h2.49V9a7.17,7.17,0,0,1,.4-2.58,4.73,4.73,0,0,1,1.13-1.73,4.31,4.31,0,0,1,1.68-1,6.34,6.34,0,0,1,2.08-.32,10.85,10.85,0,0,1,1.32.07,7.26,7.26,0,0,1,.88.16Zm20,19.74a4.89,4.89,0,0,1-.9.22,10,10,0,0,1-1.47.12,6.2,6.2,0,0,1-1.93-.27,3.78,3.78,0,0,1-1.36-.79,3.26,3.26,0,0,1-.81-1.24,4.67,4.67,0,0,1-.26-1.62V13.09h-2.73v-2H146V7.25h2.3v3.86h4.22v2h-4.22v8.23a2.67,2.67,0,0,0,.14.91,1.8,1.8,0,0,0,.45.72,2,2,0,0,0,.78.47,3.18,3.18,0,0,0,1.14.17,6.84,6.84,0,0,0,1-.07,7.8,7.8,0,0,0,.94-.19Z"></path></g></g></svg>